<svg width="149" height="67" viewBox="0 0 149 67" fill="none" xmlns="http://www.w3.org/2000/svg">
<path fill-rule="evenodd" clip-rule="evenodd" d="M123.439 10.06H105.259V17H124.139C127.453 17 130.139 19.6863 130.139 23V25C130.139 28.3137 127.453 31 124.139 31H105.259V52H114.379V37.78H121.519L128.899 52H138.259L130.279 36.64C132.919 35.64 134.959 34.06 136.399 31.9C137.839 29.7 138.559 27.04 138.559 23.92C138.559 19.44 137.219 16.02 134.539 13.66C131.899 11.26 128.199 10.06 123.439 10.06Z" fill="#43B346"/>
<path fill-rule="evenodd" clip-rule="evenodd" d="M85.8076 52L64.0649 10.2377L75.2584 10.0829L97.0817 52H85.8076ZM70.009 0L70.0888 0.153435L69.704 0.15876L70.009 0Z" fill="#43B346"/>
<path fill-rule="evenodd" clip-rule="evenodd" d="M43.6815 52L61.4088 10.274L67.5385 22.0478L54.8134 52H43.6815Z" fill="#43B346"/>
<path d="M49.0291 61.45H45.9891L45.4291 63H44.4691L46.9891 56.07H48.0391L50.5491 63H49.5891L49.0291 61.45ZM48.7691 60.71L47.5091 57.19L46.2491 60.71H48.7691ZM56.4074 56.77V59.1H58.9474V59.85H56.4074V62.25H59.2474V63H55.4974V56.02H59.2474V56.77H56.4074ZM69.7543 58.05C69.561 57.6433 69.281 57.33 68.9143 57.11C68.5477 56.8833 68.121 56.77 67.6343 56.77C67.1477 56.77 66.7077 56.8833 66.3143 57.11C65.9277 57.33 65.621 57.65 65.3943 58.07C65.1743 58.4833 65.0643 58.9633 65.0643 59.51C65.0643 60.0567 65.1743 60.5367 65.3943 60.95C65.621 61.3633 65.9277 61.6833 66.3143 61.91C66.7077 62.13 67.1477 62.24 67.6343 62.24C68.3143 62.24 68.8743 62.0367 69.3143 61.63C69.7543 61.2233 70.011 60.6733 70.0843 59.98H67.3043V59.24H71.0543V59.94C71.001 60.5133 70.821 61.04 70.5143 61.52C70.2077 61.9933 69.8043 62.37 69.3043 62.65C68.8043 62.9233 68.2477 63.06 67.6343 63.06C66.9877 63.06 66.3977 62.91 65.8643 62.61C65.331 62.3033 64.9077 61.88 64.5943 61.34C64.2877 60.8 64.1343 60.19 64.1343 59.51C64.1343 58.83 64.2877 58.22 64.5943 57.68C64.9077 57.1333 65.331 56.71 65.8643 56.41C66.3977 56.1033 66.9877 55.95 67.6343 55.95C68.3743 55.95 69.0277 56.1333 69.5943 56.5C70.1677 56.8667 70.5843 57.3833 70.8443 58.05H69.7543ZM77.0175 56.03V63H76.1075V56.03H77.0175ZM84.6285 63.07C84.1685 63.07 83.7551 62.99 83.3885 62.83C83.0285 62.6633 82.7451 62.4367 82.5385 62.15C82.3318 61.8567 82.2251 61.52 82.2185 61.14H83.1885C83.2218 61.4667 83.3551 61.7433 83.5885 61.97C83.8285 62.19 84.1751 62.3 84.6285 62.3C85.0618 62.3 85.4018 62.1933 85.6485 61.98C85.9018 61.76 86.0285 61.48 86.0285 61.14C86.0285 60.8733 85.9551 60.6567 85.8085 60.49C85.6618 60.3233 85.4785 60.1967 85.2585 60.11C85.0385 60.0233 84.7418 59.93 84.3685 59.83C83.9085 59.71 83.5385 59.59 83.2585 59.47C82.9851 59.35 82.7485 59.1633 82.5485 58.91C82.3551 58.65 82.2585 58.3033 82.2585 57.87C82.2585 57.49 82.3551 57.1533 82.5485 56.86C82.7418 56.5667 83.0118 56.34 83.3585 56.18C83.7118 56.02 84.1151 55.94 84.5685 55.94C85.2218 55.94 85.7551 56.1033 86.1685 56.43C86.5885 56.7567 86.8251 57.19 86.8785 57.73H85.8785C85.8451 57.4633 85.7051 57.23 85.4585 57.03C85.2118 56.8233 84.8851 56.72 84.4785 56.72C84.0985 56.72 83.7885 56.82 83.5485 57.02C83.3085 57.2133 83.1885 57.4867 83.1885 57.84C83.1885 58.0933 83.2585 58.3 83.3985 58.46C83.5451 58.62 83.7218 58.7433 83.9285 58.83C84.1418 58.91 84.4385 59.0033 84.8185 59.11C85.2785 59.2367 85.6485 59.3633 85.9285 59.49C86.2085 59.61 86.4485 59.8 86.6485 60.06C86.8485 60.3133 86.9485 60.66 86.9485 61.1C86.9485 61.44 86.8585 61.76 86.6785 62.06C86.4985 62.36 86.2318 62.6033 85.8785 62.79C85.5251 62.9767 85.1085 63.07 84.6285 63.07Z" fill="white"/>
<path d="M109.579 63L107.919 60.15H106.819V63H105.909V56.03H108.159C108.686 56.03 109.129 56.12 109.489 56.3C109.856 56.48 110.129 56.7233 110.309 57.03C110.489 57.3367 110.579 57.6867 110.579 58.08C110.579 58.56 110.439 58.9833 110.159 59.35C109.886 59.7167 109.472 59.96 108.919 60.08L110.669 63H109.579ZM106.819 59.42H108.159C108.652 59.42 109.022 59.3 109.269 59.06C109.516 58.8133 109.639 58.4867 109.639 58.08C109.639 57.6667 109.516 57.3467 109.269 57.12C109.029 56.8933 108.659 56.78 108.159 56.78H106.819V59.42ZM116.753 56.03V63H115.843V56.03H116.753ZM124.324 56.03C125.084 56.03 125.741 56.1733 126.294 56.46C126.854 56.74 127.281 57.1433 127.574 57.67C127.874 58.1967 128.024 58.8167 128.024 59.53C128.024 60.2433 127.874 60.8633 127.574 61.39C127.281 61.91 126.854 62.31 126.294 62.59C125.741 62.8633 125.084 63 124.324 63H122.154V56.03H124.324ZM124.324 62.25C125.224 62.25 125.911 62.0133 126.384 61.54C126.857 61.06 127.094 60.39 127.094 59.53C127.094 58.6633 126.854 57.9867 126.374 57.5C125.901 57.0133 125.217 56.77 124.324 56.77H123.064V62.25H124.324ZM133.984 56.77V59.1H136.524V59.85H133.984V62.25H136.824V63H133.074V56.02H136.824V56.77H133.984ZM145.721 63L144.061 60.15H142.961V63H142.051V56.03H144.301C144.828 56.03 145.271 56.12 145.631 56.3C145.998 56.48 146.271 56.7233 146.451 57.03C146.631 57.3367 146.721 57.6867 146.721 58.08C146.721 58.56 146.581 58.9833 146.301 59.35C146.028 59.7167 145.615 59.96 145.061 60.08L146.811 63H145.721ZM142.961 59.42H144.301C144.795 59.42 145.165 59.3 145.411 59.06C145.658 58.8133 145.781 58.4867 145.781 58.08C145.781 57.6667 145.658 57.3467 145.411 57.12C145.171 56.8933 144.801 56.78 144.301 56.78H142.961V59.42Z" fill="white"/>
<path fill-rule="evenodd" clip-rule="evenodd" d="M42.1391 12.055C25.9822 14.1246 -3.94252 26.2662 1.69775 43.4289C1.7369 43.3127 1.77761 43.1969 1.81987 43.0815C2.24099 35.3918 10.1021 21.0199 38.5405 18.0989L42.1391 12.055Z" fill="white"/>
<path d="M1.69775 43.4289L1.22275 43.585L1.69171 45.0119L2.17155 43.5886L1.69775 43.4289ZM42.1391 12.055L42.5687 12.3108L43.094 11.4286L42.0756 11.559L42.1391 12.055ZM1.81987 43.0815L2.2894 43.2533L2.31504 43.1833L2.31912 43.1088L1.81987 43.0815ZM38.5405 18.0989L38.5916 18.5963L38.8416 18.5706L38.9702 18.3547L38.5405 18.0989ZM2.17276 43.2727C0.816494 39.1458 1.58965 35.3231 3.78785 31.8443C5.99641 28.3491 9.64351 25.206 14.0075 22.5073C22.7354 17.1098 34.1861 13.5778 42.2026 12.5509L42.0756 11.559C33.9352 12.6018 22.3451 16.1754 13.4815 21.6568C9.04973 24.3975 5.26339 27.6371 2.94248 31.3102C0.611211 34.9996 -0.241126 39.1306 1.22275 43.585L2.17276 43.2727ZM1.35033 42.9096C1.30661 43.0291 1.26448 43.1489 1.22395 43.2691L2.17155 43.5886C2.20932 43.4766 2.24861 43.3648 2.2894 43.2533L1.35033 42.9096ZM38.4895 17.6015C9.8851 20.5396 1.7591 35.0474 1.32061 43.0542L2.31912 43.1088C2.72288 35.7361 10.3192 21.5003 38.5916 18.5963L38.4895 17.6015ZM38.9702 18.3547L42.5687 12.3108L41.7095 11.7992L38.1109 17.8431L38.9702 18.3547Z" fill="white"/>
<path fill-rule="evenodd" clip-rule="evenodd" d="M36.6025 22.2694C23.1456 23.9932 -1.77851 34.1059 2.91923 48.4005C2.95183 48.3037 2.98574 48.2073 3.02093 48.1111C3.37169 41.7064 9.91919 29.7363 33.6053 27.3034L36.6025 22.2694Z" fill="white"/>
<path d="M2.91923 48.4005L2.44422 48.5566L2.91318 49.9835L3.39303 48.5602L2.91923 48.4005ZM36.6025 22.2694L37.0321 22.5252L37.5574 21.643L36.539 21.7735L36.6025 22.2694ZM3.02093 48.1111L3.49047 48.283L3.51611 48.213L3.52019 48.1385L3.02093 48.1111ZM33.6053 27.3034L33.6564 27.8008L33.9064 27.7751L34.0349 27.5592L33.6053 27.3034ZM3.39423 48.2444C2.2736 44.8344 2.91094 41.6763 4.73069 38.7964C6.56079 35.9002 9.5868 33.2904 13.2159 31.0461C20.474 26.5576 29.9995 23.6193 36.666 22.7654L36.539 21.7735C29.7486 22.6433 20.0836 25.6232 12.6899 30.1956C8.99302 32.4818 5.82777 35.1882 3.88532 38.2623C1.9325 41.3527 1.21598 44.8192 2.44422 48.5566L3.39423 48.2444ZM2.55139 47.9393C2.51474 48.0394 2.47941 48.1399 2.44543 48.2407L3.39303 48.5602C3.42425 48.4676 3.45674 48.3752 3.49047 48.283L2.55139 47.9393ZM33.5542 26.806C9.70214 29.2559 2.8898 41.3621 2.52168 48.0838L3.52019 48.1385C3.85358 42.0508 10.1362 30.2166 33.6564 27.8008L33.5542 26.806ZM34.0349 27.5592L37.0321 22.5252L36.1729 22.0136L33.1757 27.0476L34.0349 27.5592Z" fill="white"/>
<path fill-rule="evenodd" clip-rule="evenodd" d="M30.9681 31.602C19.4336 33.0795 -1.92986 41.7475 2.09676 54C2.12471 53.9171 2.15378 53.8344 2.18394 53.752C2.4846 48.2622 8.09674 38.0021 28.3991 35.9168L30.9681 31.602Z" fill="white"/>
<path d="M2.09676 54L1.62176 54.1561L2.09072 55.5831L2.57056 54.1597L2.09676 54ZM30.9681 31.602L31.3977 31.8578L31.923 30.9756L30.9046 31.106L30.9681 31.602ZM2.18394 53.752L2.65348 53.9238L2.67911 53.8538L2.68319 53.7793L2.18394 53.752ZM28.3991 35.9168L28.4502 36.4142L28.7001 36.3885L28.8287 36.1726L28.3991 35.9168ZM2.57177 53.8439C1.61892 50.9445 2.15955 48.2596 3.70983 45.8061C5.27046 43.3363 7.85423 41.1063 10.96 39.1856C17.1715 35.3443 25.3263 32.8287 31.0316 32.0979L30.9046 31.106C25.0754 31.8527 16.7812 34.4099 10.434 38.3351C7.26045 40.2977 4.53744 42.6243 2.86445 45.272C1.18111 47.936 0.561296 50.9292 1.62176 54.1561L2.57177 53.8439ZM1.7144 53.5801C1.68278 53.6665 1.65229 53.7533 1.62296 53.8403L2.57056 54.1597C2.59713 54.0809 2.62478 54.0023 2.65348 53.9238L1.7144 53.5801ZM28.348 35.4194C7.87969 37.5218 2.0027 47.9179 1.68469 53.7246L2.68319 53.7793C2.96649 48.6066 8.31378 38.4824 28.4502 36.4142L28.348 35.4194ZM28.8287 36.1726L31.3977 31.8578L30.5385 31.3462L27.9695 35.661L28.8287 36.1726Z" fill="white"/>
</svg>
