<svg width="28" height="24" viewBox="0 0 28 24" fill="none" xmlns="http://www.w3.org/2000/svg">
<path d="M15.1979 4.94702H10.2037V6.92585H14.2693L16.5343 8.90467H12.4686L7.93868 10.8835L5.67369 8.90467H0.0112325V10.8835H4.5412C3.64526 10.8835 2.76943 11.1156 2.02448 11.5505C1.27954 11.9854 0.698918 12.6035 0.356056 13.3266C0.0131932 14.0498 -0.0765152 14.8455 0.0982746 15.6133C0.273064 16.381 0.704502 17.0861 1.33803 17.6396C1.97156 18.1931 2.77872 18.5701 3.65745 18.7228C4.53617 18.8755 5.447 18.7971 6.27474 18.4975C7.10249 18.198 7.80997 17.6907 8.30773 17.0399C8.80549 16.3891 9.07117 15.6239 9.07117 14.8412L11.3362 16.82H14.7336L18.686 10.7846L19.8298 11.7839C19.3019 12.1491 18.875 12.6137 18.5809 13.143C18.2868 13.6723 18.133 14.2528 18.1311 14.8412C18.1311 15.6239 18.3968 16.3891 18.8945 17.0399C19.3923 17.6907 20.0998 18.198 20.9275 18.4975C21.7553 18.7971 22.6661 18.8755 23.5448 18.7228C24.4235 18.5701 25.2307 18.1931 25.8642 17.6396C26.4978 17.0861 26.9292 16.381 27.104 15.6133C27.2788 14.8455 27.1891 14.0498 26.8462 13.3266C26.5034 12.6035 25.9227 11.9854 25.1778 11.5505C24.4328 11.1156 23.557 10.8835 22.6611 10.8835C22.4601 10.8897 22.2596 10.9062 22.0608 10.933L19.7279 8.90467H22.6611V5.93643L18.4482 7.77674L15.1979 4.94702ZM22.6611 16.82C22.2131 16.82 21.7752 16.7039 21.4027 16.4865C21.0302 16.2691 20.7399 15.96 20.5685 15.5984C20.3971 15.2368 20.3522 14.839 20.4396 14.4551C20.527 14.0712 20.7427 13.7187 21.0595 13.4419C21.3762 13.1652 21.7798 12.9767 22.2192 12.9003C22.6586 12.824 23.114 12.8632 23.5278 13.013C23.9417 13.1627 24.2955 13.4164 24.5443 13.7418C24.7932 14.0672 24.9261 14.4498 24.9261 14.8412C24.9243 15.3655 24.6851 15.8679 24.2607 16.2387C23.8363 16.6094 23.2612 16.8184 22.6611 16.82ZM4.5412 16.82C4.09323 16.82 3.65532 16.7039 3.28284 16.4865C2.91037 16.2691 2.62006 15.96 2.44863 15.5984C2.2772 15.2368 2.23234 14.839 2.31974 14.4551C2.40713 14.0712 2.62285 13.7187 2.93961 13.4419C3.25638 13.1652 3.65996 12.9767 4.09932 12.9003C4.53869 12.824 4.9941 12.8632 5.40797 13.013C5.82184 13.1627 6.17559 13.4164 6.42446 13.7418C6.67334 14.0672 6.80618 14.4498 6.80618 14.8412C6.80439 15.3655 6.56518 15.8679 6.14081 16.2387C5.71643 16.6094 5.14136 16.8184 4.5412 16.82Z" fill="#989899"/>
</svg>
