<svg width="93" height="93" viewBox="0 0 93 93" fill="none" xmlns="http://www.w3.org/2000/svg">
<path d="M93 46.5C93 72.1812 72.1812 93 46.5 93C20.8188 93 0 72.1812 0 46.5C0 20.8188 20.8188 0 46.5 0C72.1812 0 93 20.8188 93 46.5Z" fill="black"/>
<circle cx="46.5" cy="46.5" r="39.5" fill="#42B546" stroke="#1C1C1E" stroke-width="4"/>
<g clip-path="url(#clip0_3901_802)">
<path d="M46.0044 45.1645C46.0049 44.474 45.8006 43.7986 45.4171 43.2228C45.0335 42.6471 44.4878 42.1965 43.8481 41.9275L31.5698 36.7632C28.638 40.2261 26.5317 44.3033 25.4086 48.6898H42.4616C42.9275 48.6912 43.389 48.6009 43.8197 48.4242C44.2503 48.2475 44.6415 47.9878 44.9708 47.6601C45.3001 47.3325 45.561 46.9433 45.7383 46.515C45.9157 46.0867 46.0062 45.6277 46.0044 45.1645V45.1645Z" fill="black"/>
<path d="M67.9191 44.7927C67.0168 35.1446 57.8853 28.413 48.1592 29.0408C43.4641 29.226 38.927 30.778 35.1111 33.5041L45.5408 37.8943C47.2268 38.6051 48.6139 39.8736 49.4669 41.4849C50.3199 43.0962 50.5864 44.9511 50.2213 46.7354C49.8561 48.5197 48.8817 50.1236 47.4633 51.2753C46.0448 52.4271 44.2695 53.0558 42.4381 53.0551H24.4622C24.1919 54.6487 24.0375 56.2597 24 57.8755V59.6316C24.0039 60.7908 24.4688 61.9015 25.2933 62.7213C26.1178 63.541 27.2349 64.0032 28.4009 64.0071H50.4038C52.8602 64.0057 55.2891 63.4933 57.5344 62.5029C59.7797 61.5126 61.7918 60.0661 63.4413 58.2566C65.0909 56.447 66.3414 54.3143 67.1126 51.9956C67.8837 49.6768 68.1584 47.2233 67.9191 44.7927V44.7927Z" fill="black"/>
</g>
<defs>
<clipPath id="clip0_3901_802">
<rect width="44" height="35" fill="white" transform="translate(24 29)"/>
</clipPath>
</defs>
</svg>
