<svg width="211" height="70" viewBox="0 0 211 70" fill="none" xmlns="http://www.w3.org/2000/svg">
<path d="M0.0054005 40.853C0.364401 22.067 20.0384 8.42 41.7584 6.599C47.0474 6.157 55.9954 6.033 62.6174 8.107L56.3514 19.667C51.5379 18.5718 46.5929 18.1678 41.6654 18.467C19.5104 19.234 5.5654 32.233 5.2574 45.376C5.14844 48.9314 6.01307 52.449 7.75787 55.5488C9.50268 58.6486 12.0613 61.2126 15.1574 62.964L14.7204 63.337C5.0064 58.5 -0.1916 50.897 0.0054005 40.853Z" fill="white"/>
<path d="M10.3174 45.264C12.5174 34.294 24.7324 25.914 43.9324 26.916C46.7448 27.0258 49.5441 27.3572 52.3044 27.907L46.7544 38.141C45.0274 37.904 42.3304 37.423 40.0154 37.299C24.8894 36.508 15.5824 42.766 14.0384 50.746C13.6396 53.0593 13.9306 55.4387 14.8753 57.5877C15.8199 59.7366 17.3763 61.5598 19.3504 62.83L18.9104 63.168C11.4024 59.013 8.9704 51.97 10.3174 45.264Z" fill="white"/>
<path d="M19.3844 50.818C23.0594 44.639 34.1334 42.638 44.0204 45.039L41.1204 50.352C33.2604 48.544 24.1614 49.772 21.5534 54.303C20.1354 56.769 20.9264 60.157 22.5274 62.549L22.2334 62.849C18.5364 59.538 17.1934 54.504 19.3844 50.818Z" fill="white"/>
<path d="M75.1034 0H73.3614V69.666H75.1034V0Z" fill="white"/>
<path d="M129.75 55.735H139.669L120.492 3.16701H110.464L121.594 34.576L129.75 55.735ZM89.1944 55.735H98.8944L110.354 27.743L105.615 15.179L89.1944 55.735ZM194.749 55.735L180.533 35.898C182.29 35.374 183.988 34.6724 185.602 33.804C187.096 32.8814 188.435 31.7286 189.569 30.388C190.705 29.0639 191.566 27.528 192.104 25.869C192.79 23.9612 193.126 21.9452 193.096 19.918C193.134 17.5378 192.684 15.175 191.774 12.975C190.888 10.9843 189.57 9.2151 187.917 7.79501C186.102 6.29105 184.003 5.16683 181.745 4.48901C179.105 3.67059 176.355 3.26185 173.59 3.27701H150.225V11.653H172.818C176.272 11.653 178.953 12.3863 180.863 13.853C182.773 15.3197 183.728 17.5237 183.728 20.465C183.785 21.6804 183.555 22.8921 183.058 24.0024C182.56 25.1127 181.808 26.0905 180.863 26.857C178.953 28.4737 176.308 29.282 172.928 29.282H150.228V55.735H159.375V37.44H170.947L183.841 55.735H194.751H194.749Z" fill="#42B546"/>
<path d="M93.1004 66.312L92.7354 65.277H90.6264L90.2614 66.312H89.1944L91.0434 61.291H92.3184L94.1674 66.312H93.1004ZM90.9314 64.405H92.4314L91.6844 62.275L90.9314 64.405ZM103.972 62.205H102.105V63.345H103.755V64.252H102.105V65.388H103.967V66.309H101.06V61.291H103.972V62.208V62.205ZM113.357 66.378C113.019 66.3921 112.681 66.3349 112.366 66.2101C112.051 66.0854 111.765 65.8958 111.528 65.6537C111.291 65.4116 111.107 65.1224 110.989 64.8048C110.871 64.4872 110.82 64.1483 110.841 63.81C110.843 63.2505 111.026 62.7065 111.361 62.2589C111.697 61.8112 112.168 61.4839 112.705 61.3254C113.242 61.1669 113.815 61.1858 114.34 61.3792C114.865 61.5726 115.314 61.9303 115.619 62.399L114.705 62.89C114.586 62.6509 114.399 62.4517 114.168 62.3166C113.938 62.1816 113.672 62.1164 113.405 62.129C113.192 62.1246 112.981 62.1657 112.785 62.2496C112.589 62.3335 112.413 62.4581 112.269 62.6153C112.125 62.7725 112.016 62.9585 111.949 63.1611C111.883 63.3637 111.86 63.5781 111.883 63.79C111.86 64.0063 111.884 64.2251 111.952 64.4317C112.02 64.6382 112.132 64.8277 112.28 64.9874C112.428 65.147 112.608 65.2731 112.809 65.3573C113.01 65.4414 113.226 65.4815 113.443 65.475C113.762 65.4993 114.079 65.4054 114.332 65.2112C114.586 65.0169 114.76 64.736 114.819 64.422H113.451V63.584H115.81V66.312H114.99V65.617C114.806 65.8728 114.559 66.0772 114.273 66.2109C113.987 66.3445 113.672 66.4031 113.357 66.381V66.378ZM123.031 66.309V61.291H124.073V66.312L123.031 66.309ZM133.177 66.378C132.713 66.4366 132.243 66.3199 131.86 66.0506C131.477 65.7814 131.208 65.379 131.105 64.922L132.182 64.675C132.194 64.7991 132.23 64.9197 132.289 65.0298C132.347 65.14 132.427 65.2375 132.523 65.3169C132.619 65.3963 132.73 65.456 132.849 65.4926C132.968 65.5291 133.093 65.5419 133.217 65.53C133.641 65.53 133.978 65.342 133.974 64.918C133.974 64.445 133.415 64.296 132.803 64.108C132.066 63.879 131.278 63.608 131.278 62.683C131.278 61.758 132.042 61.22 133.05 61.22C133.483 61.1664 133.921 61.2703 134.283 61.5126C134.645 61.755 134.909 62.1197 135.024 62.54L134.016 62.79C133.99 62.5765 133.88 62.382 133.712 62.2477C133.544 62.1134 133.331 62.05 133.116 62.071C132.696 62.071 132.338 62.245 132.338 62.658C132.338 63.044 132.831 63.172 133.401 63.343C134.158 63.572 135.055 63.864 135.055 64.865C135.055 65.932 134.162 66.38 133.179 66.38L133.177 66.378ZM152.795 66.309L151.489 64.099H151.189V66.309H150.144V61.291H151.965C152.174 61.2625 152.387 61.2807 152.588 61.3443C152.789 61.4079 152.974 61.5153 153.128 61.6588C153.283 61.8022 153.404 61.9782 153.482 62.174C153.56 62.3698 153.594 62.5805 153.581 62.791C153.596 63.0961 153.494 63.3952 153.297 63.6285C153.1 63.8618 152.822 64.012 152.518 64.049L154.029 66.311H152.795V66.309ZM151.186 62.153V63.353H151.805C152.361 63.353 152.587 63.117 152.587 62.753C152.587 62.389 152.361 62.153 151.805 62.153H151.19H151.186ZM160.932 66.309V61.291H161.975V66.312L160.932 66.309ZM169.41 66.309V61.291H171.227C171.558 61.2653 171.891 61.3135 172.201 61.4322C172.511 61.5509 172.791 61.7371 173.02 61.9773C173.249 62.2175 173.422 62.5056 173.526 62.8209C173.63 63.1361 173.663 63.4706 173.621 63.8C173.663 64.1296 173.631 64.4643 173.527 64.7798C173.423 65.0954 173.25 65.3839 173.021 65.6243C172.792 65.8648 172.512 66.0513 172.202 66.1702C171.891 66.2892 171.559 66.3376 171.227 66.312H169.411L169.41 66.309ZM170.453 65.388H171.176C172.1 65.388 172.524 64.811 172.524 63.797C172.524 62.783 172.1 62.206 171.176 62.206H170.453V65.389V65.388ZM183.653 62.205H181.788V63.345H183.439V64.252H181.788V65.388H183.65V66.309H180.739V61.291H183.651V62.208L183.653 62.205ZM193.517 66.305L192.211 64.095H191.911V66.305H190.869V61.291H192.69C192.899 61.2625 193.112 61.2807 193.313 61.3443C193.514 61.4079 193.699 61.5153 193.853 61.6588C194.008 61.8022 194.129 61.9782 194.207 62.174C194.285 62.3698 194.319 62.5805 194.306 62.791C194.321 63.0961 194.219 63.3952 194.022 63.6285C193.825 63.8618 193.547 64.012 193.243 64.049L194.754 66.311H193.515L193.517 66.305ZM191.905 62.156V63.356H192.52C193.076 63.356 193.302 63.12 193.302 62.756C193.302 62.392 193.076 62.156 192.52 62.156H191.905Z" fill="white"/>
</svg>
